# xmcd
#
# Track frame offsets:
#	150
#	29150
#	62445
#	99142
#	101830
#	147433
#	176202
#	207100
#
# Disc length: 3039 seconds
#
# Revision: 1
# Processed by: cddbd v1.5.2PL0 Copyright (c) Steve Scherf et al.
# Submitted via: audiograbber 1.83.01
#
DISCID=700bdd08
DTITLE=Grateful Dead - 93-02-23 Oakland Coliseum Arena, Oakland CA
DYEAR=1900
DGENRE=
TTITLE0=Cold Rain and Snow
TTITLE1=Wang Dang Doodle
TTITLE2=Loser
TTITLE3=Tuning
TTITLE4=Stuck Inside Of Mobile
TTITLE5=Broken Arrow
TTITLE6=Way To Go Home
TTITLE7=Johnny B Goode
EXTD=
EXTT0=
EXTT1=
EXTT2=
EXTT3=
EXTT4=
EXTT5=
EXTT6=
EXTT7=
PLAYORDER=
